<?xml version="1.0" ?>
<!DOCTYPE svg  PUBLIC '-//W3C//DTD SVG 1.1//EN'  'http://www.w3.org/Graphics/SVG/1.1/DTD/svg11.dtd'>
<!-- Uploaded to: SVG Repo, www.svgrepo.com, Generator: SVG Repo Mixer Tools -->
<svg fill="#000000" width="800px" height="800px" viewBox="0 0 512 512" version="1.1" xml:space="preserve" xmlns="http://www.w3.org/2000/svg" xmlns:xlink="http://www.w3.org/1999/xlink">
<g id="_x35_17_x2C__Advanced_x2C__cyber_x2C__future_x2C__human_x2C__mind">
<g>
<path d="M337.723,201.867c3.583-3.595,8.545-5.795,14.017-5.795    c5.475,0,10.437,2.2,14.021,5.795c3.58,3.568,5.809,8.531,5.809,14.004c0,5.474-2.229,10.436-5.809,14.031    c-3.584,3.568-8.546,5.795-14.021,5.795c-5.472,0-10.434-2.227-14.017-5.795c-3.58-3.596-5.809-8.558-5.809-14.031    C331.914,210.398,334.143,205.436,337.723,201.867 M122.955,85.408c-26.883,27.418-38.363,61.328-36.927,95.613    c1.527,36.54,17.706,73.589,45.54,103.85c3.688,3.998,7.001,10.705,9.497,19.344c2.32,7.994,3.997,17.732,4.653,28.571    l7.068,114.474h44.321v-91.535c0-1.825,1.488-3.301,3.299-3.301c1.825,0,3.299,1.476,3.299,3.301v91.535h112.49l-1.787-49.846    c-0.238-6.788,0.257-12.878,1.277-17.895c1.152-5.713,3.029-10.167,5.244-12.662c9.752-11.026,20.993-10.275,35.049-9.336    c3.569,0.24,7.338,0.51,11.055,0.563c23.528,0.403,28.519-11.67,28.746-25.674c0.092-5.393-0.498-11.24-1.035-16.82    c-1.449-14.729-2.733-27.9,7.89-32.14l0.187-0.081c1.716-0.67,2.604-0.857,4.13-1.126l1.583-0.322    c13.428-2.764,17.548-5.929,16.769-9.712c-0.859-4.212-6.142-10.033-12.339-16.848c-5.637-6.223-11.992-13.226-16.902-21.193    c-5.447-8.8-5.338-21.328-5.19-36.566c0.309-33.454,0.751-80.885-60.017-124.587c-30.03-21.569-70.07-31.603-108.987-29.269    C184.498,45.973,148.227,59.654,122.955,85.408z M246.51,111.163c0-1.824,1.488-3.3,3.299-3.3c1.811,0,3.299,1.476,3.299,3.3    v38.847h35.828c1.811,0,3.288,1.476,3.288,3.3c0,1.823-1.478,3.3-3.288,3.3h-39.127c-1.811,0-3.299-1.477-3.299-3.3V111.163z     M158.527,156.609c-1.822,0-3.299-1.477-3.299-3.3c0-1.824,1.478-3.3,3.299-3.3h35.814v-38.847c0-1.824,1.478-3.3,3.302-3.3    c1.811,0,3.299,1.476,3.299,3.3v42.146c0,1.823-1.488,3.3-3.299,3.3H158.527z M200.943,245.945c0,1.824-1.488,3.3-3.299,3.3    c-1.825,0-3.302-1.476-3.302-3.3v-38.873h-35.814c-1.822,0-3.299-1.476-3.299-3.3c0-1.798,1.478-3.273,3.299-3.273h39.117    c1.811,0,3.299,1.476,3.299,3.273V245.945z M288.937,200.499c1.811,0,3.288,1.476,3.288,3.273c0,1.824-1.478,3.3-3.288,3.3    h-35.828v38.873c0,1.824-1.488,3.3-3.299,3.3c-1.811,0-3.299-1.476-3.299-3.3v-42.173c0-1.798,1.488-3.273,3.299-3.273H288.937z     M230.184,153.31c0-1.824,1.488-3.3,3.299-3.3c1.825,0,3.303,1.476,3.303,3.3v12.501h11.346c1.825,0,3.299,1.477,3.299,3.301    c0,1.797-1.474,3.271-3.299,3.271h-14.649c-1.811,0-3.299-1.475-3.299-3.271V153.31z M199.308,172.383    c-1.811,0-3.303-1.475-3.303-3.271c0-1.824,1.492-3.301,3.303-3.301h11.346V153.31c0-1.824,1.488-3.3,3.299-3.3    c1.825,0,3.302,1.476,3.302,3.3v15.802c0,1.797-1.477,3.271-3.302,3.271H199.308z M217.255,203.772c0,1.824-1.477,3.3-3.302,3.3    c-1.811,0-3.299-1.476-3.299-3.3v-12.476h-11.346c-1.811,0-3.303-1.475-3.303-3.3c0-1.823,1.492-3.3,3.303-3.3h14.645    c1.825,0,3.302,1.477,3.302,3.3V203.772z M248.132,184.697c1.825,0,3.299,1.477,3.299,3.3c0,1.825-1.474,3.3-3.299,3.3h-11.346    v12.476c0,1.824-1.478,3.3-3.303,3.3c-1.811,0-3.299-1.476-3.299-3.3v-15.775c0-1.823,1.488-3.3,3.299-3.3H248.132z     M319.603,170.076l-87.404-87.404h-16.958l-87.404,87.404v16.955l87.404,87.405h16.958l87.404-87.405V170.076z M235.897,77.038    l89.338,89.337c0.643,0.644,0.966,1.475,0.966,2.333V188.4c0,0.912-0.376,1.717-0.966,2.334l-89.338,89.336    c-0.642,0.644-1.474,0.938-2.333,0.938l-19.688,0.027c-0.913,0-1.72-0.376-2.337-0.966l-89.334-89.336    c-0.631-0.645-0.951-1.502-0.951-2.334v-19.692c0-0.911,0.361-1.743,0.951-2.333l89.334-89.337    c0.646-0.644,1.506-0.966,2.337-0.966h19.688C234.476,76.072,235.308,76.449,235.897,77.038z M430.05,462.739    c1.812,0,3.3,1.475,3.3,3.3c0,1.797-1.488,3.272-3.3,3.272H180.609c-1.825,0-3.302-1.476-3.302-3.272c0-1.825,1.478-3.3,3.302-3.3    H430.05z M283.974,479.399c1.825,0,3.3,1.476,3.3,3.3c0,1.823-1.475,3.3-3.3,3.3H111.367c-1.811,0-3.289-1.477-3.289-3.3    c0-1.824,1.478-3.3,3.289-3.3H283.974z M93.714,479.399c1.811,0,3.285,1.476,3.285,3.3c0,1.823-1.474,3.3-3.285,3.3H72.116    c-1.811,0-3.285-1.477-3.285-3.3c0-1.824,1.474-3.3,3.285-3.3H93.714z M439.87,478.487c1.824,0,3.299,1.475,3.299,3.299    c0,1.825-1.475,3.3-3.299,3.3h-81.796c-1.812,0-3.303-1.475-3.303-3.3c0-1.824,1.491-3.299,3.303-3.299H439.87z M412.906,220.352    c0.955,1.529,0.471,3.568-1.07,4.534c-1.53,0.938-3.569,0.456-4.521-1.073c-5.433-8.8-5.313-21.328-5.18-36.593    c0.309-33.454,0.765-80.886-59.999-124.561c-15.133-10.892-32.648-18.887-51.214-23.877c-19.05-5.151-39.208-7.109-59.022-5.794    c-1.811,0.106-3.38-1.262-3.499-3.059c-0.123-1.824,1.246-3.381,3.071-3.516c20.538-1.367,41.422,0.672,61.153,6.01    c19.292,5.178,37.534,13.521,53.348,24.896c63.516,45.688,63.06,95.076,62.723,129.953    C408.575,201.492,408.467,213.162,412.906,220.352z" style="fill-rule:evenodd;clip-rule:evenodd;"/>
</g>
</g>
<g id="Layer_1"/>
</svg>