<svg xmlns="http://www.w3.org/2000/svg" width="87.466" height="99" viewBox="0 0 87.466 99">
  <defs>
    <style>
      .cls-1 {
        fill: #fff;
      }
    </style>
  </defs>
  <path id="ai-ml-icon" class="cls-1" d="M59.294,88.771l.475,8.322a1.386,1.386,0,0,1-1.046,1.387,43.633,43.633,0,0,1-14.356,0,1.223,1.223,0,0,1-1.046-1.387l.38-7.133a38.891,38.891,0,0,1-14.071-6.044l-4.563,5.35a1.271,1.271,0,0,1-1.711.2,47.962,47.962,0,0,1-10.173-10.6,1.406,1.406,0,0,1,.19-1.783l5.134-4.756a40.625,40.625,0,0,1-5.8-14.663l-6.845.5a1.354,1.354,0,0,1-1.331-1.09,49.329,49.329,0,0,1,0-14.96,1.194,1.194,0,0,1,1.331-1.09l6.845.4a42.413,42.413,0,0,1,5.8-14.663l-5.134-4.756a1.418,1.418,0,0,1-.19-1.783A47.962,47.962,0,0,1,23.358,9.61a1.271,1.271,0,0,1,1.711.2l4.563,5.35A40.714,40.714,0,0,1,43.893,9.016l-.475-7.034A1.223,1.223,0,0,1,44.463.594a47.839,47.839,0,0,1,14.071,0A1.223,1.223,0,0,1,59.58,1.981L58.914,10.3a1.3,1.3,0,0,1-1.426,1.189,1.332,1.332,0,0,1-1.141-1.486l.666-7.034a50.42,50.42,0,0,0-10.933,0l.57,7.034A1.223,1.223,0,0,1,45.6,11.394,36.552,36.552,0,0,0,30.3,17.932a1.271,1.271,0,0,1-1.711-.2l-4.658-5.251a42.827,42.827,0,0,0-7.891,8.322l5.134,4.756a1.406,1.406,0,0,1,.19,1.783A38.593,38.593,0,0,0,15.086,43a1.194,1.194,0,0,1-1.331,1.09l-6.845-.4a48.1,48.1,0,0,0,0,11.691l6.845-.4a1.267,1.267,0,0,1,1.331,1.09,39.583,39.583,0,0,0,6.275,15.753,1.406,1.406,0,0,1-.19,1.783l-5.134,4.656a46.354,46.354,0,0,0,7.986,8.322l4.563-5.35a1.271,1.271,0,0,1,1.711-.2,35.432,35.432,0,0,0,15.021,6.539,1.223,1.223,0,0,1,1.046,1.387l-.38,7.133a42.528,42.528,0,0,0,11.218,0l-.38-7.133a1.311,1.311,0,0,1,1.236-1.387,1.134,1.134,0,0,1,1.236,1.189ZM86.865,30.812a3.867,3.867,0,0,1,0,7.728h0a2.934,2.934,0,0,1-1.331-.3l-3.518,3.765a1.2,1.2,0,0,1-.951.4H63.287a1.388,1.388,0,0,1-1.331-1.387,1.461,1.461,0,0,1,1.331-1.387h17.3l3.042-3.269a4.233,4.233,0,0,1-.475-1.882A3.751,3.751,0,0,1,86.865,30.812Zm-1.141,3.864a1.142,1.142,0,1,0,1.141-1.189h0a1.182,1.182,0,0,0-1.141,1.189ZM72.89,27.345l4.754-7.133a4.144,4.144,0,0,1-.761-2.378,3.759,3.759,0,1,1,7.511-.1A3.819,3.819,0,0,1,80.686,21.7a2.531,2.531,0,0,1-.856-.1L74.6,29.425a1.3,1.3,0,0,1-1.046.594H59.485a1.388,1.388,0,0,1,0-2.774h0l13.405.1Zm6.56-9.511a1.142,1.142,0,1,0,1.141-1.189h0a1.18,1.18,0,0,0-1.141,1.189Zm4.563,63.408a3.711,3.711,0,1,1-7.416,0,3.913,3.913,0,0,1,1.046-2.675L72.89,71.433H59.485a1.388,1.388,0,0,1-1.331-1.387,1.461,1.461,0,0,1,1.331-1.387H73.65a1.182,1.182,0,0,1,1.046.594l5.324,8.025h.285a3.948,3.948,0,0,1,3.708,3.963Zm-2.567,0a1.142,1.142,0,1,0-1.141,1.189h0a1.122,1.122,0,0,0,1.141-1.189ZM90.288,64.7a3.711,3.711,0,1,1-7.416,0,3.971,3.971,0,0,1,.665-2.279l-2.947-3.17h-17.3a1.388,1.388,0,0,1,0-2.774H81.161a1.2,1.2,0,0,1,.951.4l3.613,3.963a2.531,2.531,0,0,1,.856-.1A4.019,4.019,0,0,1,90.288,64.7Zm-2.567,0a1.142,1.142,0,1,0-1.141,1.189h0A1.071,1.071,0,0,0,87.721,64.7Zm3.708-15.158A3.7,3.7,0,0,1,84.2,50.825H56.062V74.5A8.664,8.664,0,0,1,47.6,83.321a8.435,8.435,0,0,1-7.7-5.251h-.19a8.664,8.664,0,0,1-8.461-8.818v-.694a10.373,10.373,0,0,1-5.419-3.071,11.4,11.4,0,0,1,0-15.555h0a1.682,1.682,0,0,1,.475-.4c-.19-.1-.285-.3-.475-.4a11.4,11.4,0,0,1,0-15.555h0a10.428,10.428,0,0,1,5.419-3.071v-.694A8.664,8.664,0,0,1,39.71,21h.19a8.385,8.385,0,0,1,11.123-4.557,8.817,8.817,0,0,1,5.039,8.025V48.249H84.2a3.62,3.62,0,0,1,4.754-2.279,3.837,3.837,0,0,1,2.472,3.567ZM27.636,47.159a6.141,6.141,0,0,0,1.236.991H53.5V24.471A6.053,6.053,0,0,0,47.6,18.329,5.946,5.946,0,0,0,42.467,21.4a8.715,8.715,0,0,1,2.852,1.783h0a4.33,4.33,0,0,1,1.616-.4,3.794,3.794,0,0,1,3.708,3.864,3.711,3.711,0,1,1-7.416,0h0a3,3,0,0,1,.38-1.585,5.7,5.7,0,0,0-8.271.594,6.128,6.128,0,0,0-1.426,3.963v.594A11.075,11.075,0,0,1,38.189,31.7a3.412,3.412,0,0,1,2-.594,3.794,3.794,0,0,1,3.708,3.864,3.711,3.711,0,1,1-7.416,0h0a3.7,3.7,0,0,1,.19-1.09,7.294,7.294,0,0,0-3.8-.991,8.511,8.511,0,0,0-5.229,14.267ZM38.949,35.072a1.142,1.142,0,1,0,1.141-1.189h0A1.254,1.254,0,0,0,38.949,35.072Zm7.986-7.133a1.19,1.19,0,1,0-1.141-1.189h0A1.072,1.072,0,0,0,46.935,27.939ZM53.5,74.6V50.825H28.777a5.575,5.575,0,0,0-1.141.991,8.685,8.685,0,0,0,.1,11.889,8.1,8.1,0,0,0,5.039,2.378,7.993,7.993,0,0,0,3.708-.991,3.177,3.177,0,0,1-.1-.991,3.759,3.759,0,1,1,3.8,3.864A3.594,3.594,0,0,1,38,67.271a10.072,10.072,0,0,1-4.088,1.387v.594A6.053,6.053,0,0,0,39.8,75.4a5.823,5.823,0,0,0,3.8-1.387,4.1,4.1,0,0,1,2-5.251,3.815,3.815,0,0,1,5.039,2.081,4.1,4.1,0,0,1-2,5.251,3.7,3.7,0,0,1-3.232-.1,8.72,8.72,0,0,1-2.757,1.684,5.7,5.7,0,0,0,7.986,2.279A6.829,6.829,0,0,0,53.5,74.6Zm-6.56-.892a1.19,1.19,0,1,0-1.141-1.189h0A1.072,1.072,0,0,0,46.935,73.711ZM40.09,65.389A1.19,1.19,0,1,0,38.949,64.2h0a1.449,1.449,0,0,0,.19.594l.1.1a.1.1,0,0,0,.1.1A.976.976,0,0,0,40.09,65.389ZM88.862,49.537a1.142,1.142,0,1,0-1.141,1.189h0C88.291,50.825,88.862,50.231,88.862,49.537Z" transform="translate(-3.963 -0.074)"/>
</svg>
