<svg xmlns="http://www.w3.org/2000/svg" width="95.119" height="94.031" viewBox="0 0 95.119 94.031">
  <defs>
    <style>
      .cls-1, .cls-2, .cls-3 {
        fill: none;
        stroke: #fff;
        stroke-linecap: round;
        stroke-miterlimit: 10;
      }

      .cls-1 {
        stroke-linejoin: round;
        stroke-width: 2.947px;
      }

      .cls-2 {
        stroke-linejoin: bevel;
      }

      .cls-2, .cls-3 {
        stroke-width: 2.977px;
      }
    </style>
  </defs>
  <g id="Computer-Science-icon" transform="translate(1.474 1.473)">
    <path id="Path_26" class="cls-1" d="M55.192,6.648H6.348a5.02,5.02,0,0,0-4.761,5.259h0V77.392a4.813,4.813,0,0,0,4.57,5.06H88.992a4.817,4.817,0,0,0,4.761-4.961V11.906a4.813,4.813,0,0,0-4.57-5.06h-.1ZM7.586,69.157H92.9" transform="translate(-1.584 -6.648)"/>
    <path id="Path_32" class="cls-1" d="M62.426,91.978a15.284,15.284,0,0,1-2.095-1.786H37.48a14.652,14.652,0,0,1-1.714,1.786,2.949,2.949,0,0,0-1.238,2.58v1.29c0,1.091.19,1.786,1.238,1.885H62.521c1.047,0,1.428-.695,1.428-1.885v-1.29a4.442,4.442,0,0,0-1.523-2.58ZM57.38,82.552H40.527l-3.142,7.64H60.236ZM45.669,77h6.76" transform="translate(-2.915 -6.648)"/>
    <g id="Group_22" data-name="Group 22" transform="translate(10.857 15.082)">
      <path id="Path_26-2" data-name="Path 26" class="cls-2" d="M35.559,27.484,12.9,39.688l22.66,12.4" transform="translate(-12.899 -21.729)"/>
      <line id="Line_1" data-name="Line 1" class="cls-3" x1="14.567" y2="37.208" transform="translate(28.183)"/>
      <path id="Path_27" data-name="Path 27" class="cls-2" d="M62.906,27.484l22.47,12.2-22.47,12.4" transform="translate(-14.919 -21.729)"/>
    </g>
  </g>
</svg>
