<svg xmlns="http://www.w3.org/2000/svg" width="95" height="67.422" viewBox="0 0 95 67.422">
  <defs>
    <style>
      .cls-1 {
        fill: #fff;
      }
    </style>
  </defs>
  <g id="computer_networking-icon" transform="translate(0)">
    <g id="Group_23" data-name="Group 23" transform="translate(5.619 26.969)">
      <path id="Path_28" data-name="Path 28" class="cls-1" d="M50.894,34.929V39.6a.5.5,0,0,0,.519.519h.346a.5.5,0,0,0,.519-.519V34.929a.5.5,0,0,0-.519-.519h-.346A.5.5,0,0,0,50.894,34.929Z" transform="translate(-9.663 -34.41)"/>
      <path id="Path_29" data-name="Path 29" class="cls-1" d="M83.773,42.765v4.668a.5.5,0,0,0,.519.519h.346a.5.5,0,0,0,.519-.519V42.765a.5.5,0,0,0-.519-.519h-.346Q83.773,42.376,83.773,42.765Z" transform="translate(-10.991 -34.727)"/>
      <path id="Path_30" data-name="Path 30" class="cls-1" d="M18.016,42.765v4.668a.5.5,0,0,0,.519.519h.346a.5.5,0,0,0,.519-.519V42.765a.5.5,0,0,0-.519-.519h-.346C18.275,42.333,18.016,42.506,18.016,42.765Z" transform="translate(-8.335 -34.727)"/>
      <path id="Path_31" data-name="Path 31" class="cls-1" d="M56.175,43.4H46.494a1.826,1.826,0,0,1-1.815-1.815V40.549a1.826,1.826,0,0,1,1.815-1.815h9.681a1.826,1.826,0,0,1,1.815,1.815v1.037A1.884,1.884,0,0,1,56.175,43.4Z" transform="translate(-9.412 -34.585)"/>
      <path id="Path_32" data-name="Path 32" class="cls-1" d="M89.054,43.4H79.373a1.826,1.826,0,0,1-1.815-1.815V40.549a1.826,1.826,0,0,1,1.815-1.815h9.681a1.826,1.826,0,0,1,1.815,1.815v1.037A1.884,1.884,0,0,1,89.054,43.4Z" transform="translate(-10.74 -34.585)"/>
      <path id="Path_33" data-name="Path 33" class="cls-1" d="M23.3,43.4H13.615A1.826,1.826,0,0,1,11.8,41.586V40.549a1.826,1.826,0,0,1,1.815-1.815H23.3a1.826,1.826,0,0,1,1.815,1.815v1.037A1.884,1.884,0,0,1,23.3,43.4Z" transform="translate(-8.083 -34.585)"/>
      <path id="Path_34" data-name="Path 34" class="cls-1" d="M91.254,40.535H8.446a.5.5,0,0,0-.519.519V41.4a.5.5,0,0,0,.519.519H91.254a.5.5,0,0,0,.519-.519v-.346Q91.643,40.535,91.254,40.535Z" transform="translate(-7.927 -34.657)"/>
    </g>
    <g id="Group_24" data-name="Group 24" transform="translate(31.55)">
      <path id="Path_35" data-name="Path 35" class="cls-1" d="M63.994,6.305h-26.1A2.8,2.8,0,0,0,34.95,8.9V22.3a2.746,2.746,0,0,0,2.939,2.593H63.907A2.8,2.8,0,0,0,66.846,22.3V8.985A2.735,2.735,0,0,0,63.994,6.305Zm.864,15.732a1.741,1.741,0,0,1-1.815,1.642H38.754a1.687,1.687,0,0,1-1.815-1.642V9.331a1.741,1.741,0,0,1,1.815-1.642H63.043a1.687,1.687,0,0,1,1.815,1.642Z" transform="translate(-34.95 -6.305)"/>
      <rect id="Rectangle_32" data-name="Rectangle 32" class="cls-1" width="6.137" height="4.754" transform="translate(12.879 18.498)"/>
      <path id="Path_36" data-name="Path 36" class="cls-1" d="M59.041,32.175H43.482a.617.617,0,0,1-.605-.692v-.346a.668.668,0,0,1,.605-.692H59.041a.682.682,0,0,1,.692.692v.346C59.646,31.916,59.387,32.175,59.041,32.175Z" transform="translate(-35.271 -7.281)"/>
    </g>
    <g id="Group_25" data-name="Group 25" transform="translate(0 42.528)">
      <path id="Path_37" data-name="Path 37" class="cls-1" d="M31.115,50.624H5.011a2.8,2.8,0,0,0-2.939,2.593v13.4a2.746,2.746,0,0,0,2.939,2.593H31.029a2.8,2.8,0,0,0,2.939-2.593V53.3A2.735,2.735,0,0,0,31.115,50.624Zm.864,15.732A1.741,1.741,0,0,1,30.164,68H5.875A1.687,1.687,0,0,1,4.06,66.356V53.649a1.741,1.741,0,0,1,1.815-1.642H30.164a1.687,1.687,0,0,1,1.815,1.642V66.356Z" transform="translate(-2.072 -50.624)"/>
      <rect id="Rectangle_33" data-name="Rectangle 33" class="cls-1" width="6.137" height="4.754" transform="translate(12.879 18.498)"/>
      <path id="Path_38" data-name="Path 38" class="cls-1" d="M26.163,76.494H10.6A.617.617,0,0,1,10,75.8v-.346a.668.668,0,0,1,.605-.692H26.163a.682.682,0,0,1,.692.692V75.8C26.768,76.234,26.508,76.494,26.163,76.494Z" transform="translate(-2.392 -51.599)"/>
    </g>
    <g id="Group_26" data-name="Group 26" transform="translate(63.1 42.528)">
      <path id="Path_39" data-name="Path 39" class="cls-1" d="M96.872,50.624h-26.1a2.8,2.8,0,0,0-2.939,2.593v13.4a2.746,2.746,0,0,0,2.939,2.593H96.786a2.8,2.8,0,0,0,2.939-2.593V53.3A2.735,2.735,0,0,0,96.872,50.624Zm.864,15.732A1.741,1.741,0,0,1,95.922,68H71.632a1.687,1.687,0,0,1-1.815-1.642V53.649a1.741,1.741,0,0,1,1.815-1.642H95.922a1.687,1.687,0,0,1,1.815,1.642V66.356Z" transform="translate(-67.829 -50.624)"/>
      <rect id="Rectangle_34" data-name="Rectangle 34" class="cls-1" width="6.137" height="4.754" transform="translate(12.879 18.498)"/>
      <path id="Path_40" data-name="Path 40" class="cls-1" d="M91.92,76.494H76.361a.617.617,0,0,1-.605-.692v-.346a.668.668,0,0,1,.605-.692H91.92a.682.682,0,0,1,.692.692V75.8C92.525,76.234,92.266,76.494,91.92,76.494Z" transform="translate(-68.149 -51.599)"/>
    </g>
  </g>
</svg>
