<svg xmlns="http://www.w3.org/2000/svg" width="95.042" height="90.06" viewBox="0 0 95.042 90.06">
  <defs>
    <style>
      .cls-1 {
        fill: #fff;
      }

      .cls-2 {
        fill: none;
        stroke: #fff;
        stroke-linecap: round;
        stroke-miterlimit: 10;
        stroke-width: 2.099px;
      }
    </style>
  </defs>
  <g id="electronics-and-communication-icon" transform="translate(1.049)">
    <g id="Group_51" data-name="Group 51" transform="translate(44.209)">
      <g id="Communication">
        <g id="Path_33" transform="translate(6.461 10.158)">
          <path id="Path_58" data-name="Path 58" class="cls-1" d="M74.229,90.332c-.435,0-.87-.635-.87-1.179V82.986l-13.316-9.7-2.7,7.981a.939.939,0,0,1-.783.726.636.636,0,0,1-.348-.091,1.35,1.35,0,0,1-.348-1.451l17.58-51.424V16.96l-.261-.091a3.2,3.2,0,0,1-2.263-3.174,3.22,3.22,0,1,1,6.44,0A3.305,3.305,0,0,1,75.1,16.869l-.261.091V29.022L92.505,80.628a2.91,2.91,0,0,1,.087.816.8.8,0,0,1-.522.544c-.087,0-.174.091-.348.091h0c-.348,0-.609-.363-.783-.816l-2.872-8.8L75.1,82.986v6.167C75.1,89.7,74.664,90.332,74.229,90.332Zm.783-10.067,11.575-9.251-11.575-6.53ZM61.522,71.83l.7.544c3.916,2.812,10.792,7.8,11.14,8.163V64.575Zm-.174-2.086,11.053-6.8-7.224-4.807Zm14.621-6.893,10.879,5.986L83.106,57.5Zm-.957-1.542,6.7-4.807-6.788-3.537Zm-8.355-4.535,6.788,4.535V52.875Zm-.348-1.814,6.179-3.446-4.177-2.721Zm9.573-3.628L81.974,54.6l-2-5.986ZM69.7,47.615l3.742,2.267V45.529Zm5.222,2.267,3.655-2.449-3.655-1.9Zm-5.57-4.172,4.09-2.177V33.285Zm5.57-2.177,4.09,2.086-4.09-12.244ZM74.142,11.79a1.5,1.5,0,0,0-1.218.635,1.62,1.62,0,0,0-.435,1.36,1.689,1.689,0,0,0,1.654,1.723h.087a1.542,1.542,0,0,0,1.305-.635,1.62,1.62,0,0,0,.435-1.36,1.749,1.749,0,0,0-1.654-1.723Z" transform="translate(-55.797 -10.43)"/>
        </g>
        <g id="Group_50" data-name="Group 50">
          <g id="Group_49" data-name="Group 49">
            <g id="Group_33" data-name="Group 33" transform="translate(41.413 0.091)">
              <g id="Group_32" data-name="Group 32">
                <g id="Group_31" data-name="Group 31">
                  <path id="Path_59" data-name="Path 59" class="cls-1" d="M93.107,27.662a1.028,1.028,0,0,1-.7-.363.994.994,0,0,1,.174-1.36,15.2,15.2,0,0,0,6.179-11.881c0-4.535-2.176-8.707-6.179-11.881a.956.956,0,0,1-.348-.726A1.126,1.126,0,0,1,92.41.726a1.059,1.059,0,0,1,.7-.363,1.2,1.2,0,0,1,.522.181c4.526,3.718,6.962,8.344,6.962,13.514s-2.437,9.886-6.875,13.514C93.455,27.571,93.281,27.662,93.107,27.662Z" transform="translate(-92.221 -0.363)"/>
                </g>
              </g>
            </g>
            <g id="Group_36" data-name="Group 36" transform="translate(15.842 5.532)">
              <g id="Group_35" data-name="Group 35">
                <g id="Group_34" data-name="Group 34">
                  <path id="Path_60" data-name="Path 60" class="cls-1" d="M70.185,21.948a1.2,1.2,0,0,1-.522-.181,10,10,0,0,1-4.09-7.981,10.656,10.656,0,0,1,4-7.8,1.221,1.221,0,0,1,.609-.181,1.028,1.028,0,0,1,.7.363.994.994,0,0,1-.174,1.36A8.465,8.465,0,0,0,67.4,13.876a8.03,8.03,0,0,0,3.22,6.258.956.956,0,0,1,.348.726,1.126,1.126,0,0,1-.174.726C70.794,21.858,70.533,21.948,70.185,21.948Z" transform="translate(-65.573 -5.804)"/>
                </g>
              </g>
            </g>
            <g id="Group_39" data-name="Group 39" transform="translate(8.27 4.172)">
              <g id="Group_38" data-name="Group 38">
                <g id="Group_37" data-name="Group 37">
                  <path id="Path_61" data-name="Path 61" class="cls-1" d="M62.991,23.49a1.2,1.2,0,0,1-.522-.181,11.917,11.917,0,0,1-4.787-9.342,12.181,12.181,0,0,1,4.787-9.342,1.221,1.221,0,0,1,.609-.181,1.084,1.084,0,0,1,.783.363.726.726,0,0,1,.174.726.77.77,0,0,1-.348.635,9.83,9.83,0,0,0-4,7.709,9.83,9.83,0,0,0,4,7.709.956.956,0,0,1,.348.726,1.127,1.127,0,0,1-.174.726A1.192,1.192,0,0,1,62.991,23.49Z" transform="translate(-57.682 -4.444)"/>
                </g>
              </g>
            </g>
            <g id="Group_42" data-name="Group 42" transform="translate(28.445 5.714)">
              <g id="Group_41" data-name="Group 41">
                <g id="Group_40" data-name="Group 40">
                  <path id="Path_62" data-name="Path 62" class="cls-1" d="M79.593,22.039a1.028,1.028,0,0,1-.7-.363.994.994,0,0,1,.174-1.36,8.465,8.465,0,0,0,3.307-6.349A7.994,7.994,0,0,0,79.158,7.8a.9.9,0,0,1-.348-.453V7.074a1.261,1.261,0,0,1,.174-.726.835.835,0,0,1,.783-.363,1.2,1.2,0,0,1,.522.181,9.925,9.925,0,0,1,4.09,7.8,10.367,10.367,0,0,1-4,7.8A2.489,2.489,0,0,1,79.593,22.039Z" transform="translate(-78.707 -5.986)"/>
                </g>
              </g>
            </g>
            <g id="Group_45" data-name="Group 45">
              <g id="Group_44" data-name="Group 44">
                <g id="Group_43" data-name="Group 43">
                  <path id="Path_63" data-name="Path 63" class="cls-1" d="M56.551,27.662a1.2,1.2,0,0,1-.522-.181c-4.526-3.628-6.962-8.344-6.962-13.514C48.979,8.8,51.5,4.081,55.941.453a1.221,1.221,0,0,1,.609-.181,1.084,1.084,0,0,1,.783.363,1.008,1.008,0,0,1,.174.726A.77.77,0,0,1,57.16,2c-4,3.174-6.179,7.346-6.179,11.881s2.176,8.707,6.179,11.881a.956.956,0,0,1,.348.726,1.126,1.126,0,0,1-.174.726A1.19,1.19,0,0,1,56.551,27.662Z" transform="translate(-49.064 -0.272)"/>
                </g>
              </g>
            </g>
            <g id="Group_48" data-name="Group 48" transform="translate(35.316 4.263)">
              <g id="Group_47" data-name="Group 47">
                <g id="Group_46" data-name="Group 46">
                  <path id="Path_64" data-name="Path 64" class="cls-1" d="M86.758,23.581a1.028,1.028,0,0,1-.7-.363,1.249,1.249,0,0,1,.087-1.451,10.1,10.1,0,0,0,4.09-7.8,9.83,9.83,0,0,0-4-7.709.956.956,0,0,1-.348-.726,1.126,1.126,0,0,1,.174-.726c.087-.181.348-.272.7-.272a1.2,1.2,0,0,1,.522.181,11.917,11.917,0,0,1,4.787,9.342A12.181,12.181,0,0,1,87.28,23.4,1.2,1.2,0,0,1,86.758,23.581Z" transform="translate(-85.866 -4.535)"/>
                </g>
              </g>
            </g>
          </g>
        </g>
      </g>
    </g>
    <g id="Group_53" data-name="Group 53" transform="translate(0 36.187)">
      <g id="Group_27" transform="translate(24.107)">
        <path id="Path_45" class="cls-2" d="M63.514,36.459H51.939l-4.352,8.163H34.011" transform="translate(-28.354 -36.459)"/>
        <ellipse id="Ellipse_7" class="cls-2" cx="2.524" cy="2.63" rx="2.524" ry="2.63" transform="translate(0 5.532)"/>
      </g>
      <g id="Group_28" transform="translate(36.118 15.872)">
        <line id="Line_1" class="cls-2" x1="10.618" transform="translate(5.57 2.721)"/>
        <ellipse id="Ellipse_8" class="cls-2" cx="2.524" cy="2.63" rx="2.524" ry="2.63"/>
      </g>
      <g id="Group_52" data-name="Group 52" transform="translate(0 20.588)">
        <g id="Group_29">
          <path id="Path_46" class="cls-2" d="M51.529,67.3H23.157l-2-7.709H8.8" transform="translate(-3.227 -57.047)"/>
          <ellipse id="Ellipse_9" class="cls-2" cx="2.524" cy="2.63" rx="2.524" ry="2.63"/>
        </g>
        <g id="Group_30" transform="translate(14.795 10.249)">
          <path id="Path_47" class="cls-2" d="M37.332,67.3l-2.176,7.165H23.581" transform="translate(-18.62 -67.296)"/>
          <ellipse id="Ellipse_10" class="cls-2" cx="2.524" cy="2.63" rx="2.524" ry="2.63" transform="translate(0 4.625)"/>
        </g>
      </g>
    </g>
  </g>
</svg>
