<svg xmlns="http://www.w3.org/2000/svg" width="95.077" height="87.683" viewBox="0 0 95.077 87.683">
  <defs>
    <style>
      .cls-1, .cls-2 {
        fill: none;
        stroke: #fff;
        stroke-linecap: round;
        stroke-miterlimit: 10;
      }

      .cls-1 {
        stroke-width: 2.338px;
      }

      .cls-2 {
        stroke-width: 1.83px;
      }
    </style>
  </defs>
  <g id="mechanical-icon" transform="translate(1.296 1.317)">
    <g id="Group_23" transform="translate(0)">
      <g id="Group_22">
        <path id="Path_36" class="cls-1" d="M29.537,76.1,20.05,73.4a1.441,1.441,0,0,1,0-.9c.192-2.3.383-4.594.671-6.891a1.02,1.02,0,0,0-.479-1.1,17.215,17.215,0,0,1-2.492-2,.85.85,0,0,0-1.054-.2c-2.108.8-4.312,1.7-6.517,2.5-.767.3-.862.2-1.246-.5-1.342-2.5-2.779-4.993-4.121-7.49-.383-.7-.383-.8.192-1.4,1.725-1.5,3.45-2.9,5.175-4.394a1.265,1.265,0,0,0,.479-1.5,11.667,11.667,0,0,1-.383-3.2.793.793,0,0,0-.479-.8c-2.012-1-4.121-1.9-6.133-2.9a2.076,2.076,0,0,1-.767-.5l2.587-9.887a1.279,1.279,0,0,1,.862,0c2.2.2,4.408.4,6.612.7a.95.95,0,0,0,1.054-.5,17.765,17.765,0,0,1,1.917-2.6.939.939,0,0,0,.192-1.1c-.767-2.2-1.629-4.494-2.4-6.791-.287-.8-.192-.9.479-1.3,2.4-1.4,4.792-2.9,7.187-4.294.671-.4.767-.4,1.342.2,1.437,1.8,2.779,3.6,4.217,5.393a1.164,1.164,0,0,0,1.437.5,10.357,10.357,0,0,1,3.067-.4.758.758,0,0,0,.767-.5c.958-2.1,1.821-4.294,2.779-6.391a2.189,2.189,0,0,1,.479-.8l9.487,2.7a1.441,1.441,0,0,1,0,.9c-.192,2.3-.383,4.594-.671,6.891a1.02,1.02,0,0,0,.479,1.1,17.215,17.215,0,0,1,2.492,2,.85.85,0,0,0,1.054.2c2.108-.8,4.312-1.7,6.517-2.5.767-.3.862-.2,1.246.5,1.342,2.5,2.779,4.993,4.121,7.49.383.7.383.8-.192,1.4-1.725,1.5-3.45,2.9-5.175,4.394a1.265,1.265,0,0,0-.479,1.5,11.667,11.667,0,0,1,.383,3.2.793.793,0,0,0,.479.8c2.012,1,4.121,1.9,6.133,2.9a2.077,2.077,0,0,1,.767.5l-2.587,9.887a1.279,1.279,0,0,1-.862,0c-2.2-.2-4.408-.4-6.612-.7a.95.95,0,0,0-1.054.5,17.765,17.765,0,0,1-1.917,2.6.939.939,0,0,0-.192,1.1c.767,2.2,1.629,4.494,2.4,6.791.287.8.192.9-.479,1.3-2.4,1.4-4.792,2.9-7.187,4.294-.671.4-.767.4-1.342-.2-1.437-1.8-2.779-3.6-4.217-5.393a1.164,1.164,0,0,0-1.437-.5,10.357,10.357,0,0,1-3.067.4.758.758,0,0,0-.767.5c-.958,2.1-1.821,4.294-2.779,6.391A2.189,2.189,0,0,1,29.537,76.1Z" transform="translate(-2.896 -14.381)"/>
        <path id="Path_37" class="cls-1" d="M33.332,53.229a8.046,8.046,0,1,1,7.762-7.989h0A7.934,7.934,0,0,1,33.332,53.229Z" transform="translate(-3.816 -14.381)"/>
        <path id="Path_38" class="cls-1" d="M38.46,60.02a14.658,14.658,0,0,1-11.6-.6" transform="translate(-3.865 -14.381)"/>
        <path id="Path_39" class="cls-1" d="M17.976,45.14c.1-8.688,6.8-15.679,15.141-15.579A15.346,15.346,0,0,1,48.067,45.34a15.514,15.514,0,0,1-5.75,12.184" transform="translate(-3.505 -14.381)"/>
      </g>
    </g>
    <g id="Group_25" transform="translate(53.378 44.341)">
      <g id="Group_24">
        <path id="Path_40" class="cls-2" d="M76.347,99.767l-6.325-1.8a.66.66,0,0,1,0-.6c.192-1.5.288-3.1.383-4.594a.619.619,0,0,0-.287-.7,10.6,10.6,0,0,1-1.725-1.4c-.192-.2-.479-.3-.671-.1-1.437.6-2.875,1.2-4.312,1.7-.479.2-.575.2-.862-.3-.958-1.7-1.821-3.3-2.779-4.993-.287-.5-.287-.5.192-.9,1.15-1,2.3-2,3.45-2.9a.968.968,0,0,0,.383-1,7.9,7.9,0,0,1-.287-2.1c0-.2-.1-.5-.383-.5-1.342-.6-2.683-1.3-4.121-1.9a2.081,2.081,0,0,1-.479-.3l1.725-6.591a.589.589,0,0,1,.575,0c1.437.2,2.971.3,4.408.4a.576.576,0,0,0,.671-.3,10.931,10.931,0,0,1,1.342-1.8.507.507,0,0,0,.1-.7c-.575-1.5-1.15-3-1.629-4.494-.1-.6-.1-.7.383-1,1.629-1,3.162-1.9,4.792-2.9.479-.3.479-.3.862.2.958,1.2,1.917,2.4,2.779,3.6a.9.9,0,0,0,.958.4,7.021,7.021,0,0,1,2.012-.3.433.433,0,0,0,.479-.4c.575-1.4,1.246-2.8,1.821-4.294a2.2,2.2,0,0,1,.287-.5l6.325,1.8a.66.66,0,0,1,0,.6c-.192,1.5-.288,3.1-.383,4.594a.619.619,0,0,0,.288.7,10.6,10.6,0,0,1,1.725,1.4c.192.2.479.3.671.1,1.437-.6,2.875-1.2,4.312-1.7.479-.2.575-.2.862.3.958,1.7,1.821,3.3,2.779,4.993.287.5.287.5-.192.9-1.15,1-2.3,2-3.45,2.9a.968.968,0,0,0-.383,1,7.9,7.9,0,0,1,.288,2.1c0,.2.1.5.383.5,1.342.6,2.683,1.3,4.121,1.9a2.081,2.081,0,0,1,.479.3l-1.725,6.591a.589.589,0,0,1-.575,0c-1.437-.2-2.971-.3-4.408-.4a.576.576,0,0,0-.671.3,10.932,10.932,0,0,1-1.342,1.8.507.507,0,0,0-.1.7c.575,1.5,1.054,3,1.629,4.494.192.5.192.6-.288.9-1.629,1-3.162,1.9-4.792,2.9-.479.3-.479.3-.862-.2-.958-1.2-1.917-2.4-2.779-3.6a.9.9,0,0,0-.958-.4,7.021,7.021,0,0,1-2.012.3.433.433,0,0,0-.479.4c-.575,1.4-1.246,2.8-1.821,4.294A.918.918,0,0,1,76.347,99.767Z" transform="translate(-58.522 -58.722)"/>
        <path id="Path_41" class="cls-2" d="M78.881,84.587A5.249,5.249,0,0,1,73.8,79.195,5.179,5.179,0,0,1,78.977,73.9a5.249,5.249,0,0,1,5.079,5.393h0A5.37,5.37,0,0,1,78.881,84.587Z" transform="translate(-59.139 -58.722)"/>
        <path id="Path_42" class="cls-2" d="M82.263,89.081a9.659,9.659,0,0,1-3.45.6,9.426,9.426,0,0,1-4.312-1" transform="translate(-59.168 -58.722)"/>
        <path id="Path_43" class="cls-2" d="M68.709,79.195A10.253,10.253,0,0,1,78.771,68.808c5.558,0,9.967,4.794,9.967,10.486a10.648,10.648,0,0,1-1.821,5.892,10.763,10.763,0,0,1-2.012,2.2" transform="translate(-58.934 -58.722)"/>
      </g>
    </g>
  </g>
</svg>
